<svg width="24.000000" height="24.000000" viewBox="0 0 24 24" fill="none" xmlns="http://www.w3.org/2000/svg" xmlns:xlink="http://www.w3.org/1999/xlink">
	<desc>
			Created with Pixso.
	</desc>
	<defs>
		<clipPath id="clip1112_1109">
			<rect id="Icon / best support" width="24.000000" height="24.000000" fill="white" fill-opacity="0"/>
		</clipPath>
	</defs>
	<g clip-path="url(#clip1112_1109)">
		<path id="Vector" d="M10.69 15.2C10.59 15.09 10.46 15.01 10.32 14.97C10.18 14.93 10.04 14.94 9.9 14.98L8.54 15.43C8.47 15.45 8.39 15.46 8.31 15.45C8.23 15.44 8.16 15.42 8.09 15.38C8.02 15.34 7.96 15.28 7.92 15.22C7.87 15.15 7.84 15.08 7.82 15L7.52 13.57C7.49 13.42 7.42 13.29 7.31 13.18C7.21 13.07 7.08 13 6.94 12.97L6.87 12.95L2 20.33L5.97 20.05L7.08 24L12.06 16.48C11.98 16.48 11.91 16.46 11.84 16.43C11.76 16.39 11.7 16.35 11.65 16.29L10.69 15.2Z" fill="#A78BFA" fill-opacity="1.000000" fill-rule="nonzero"/>
		<path id="Vector" d="M10.69 15.2C10.62 15.12 10.53 15.06 10.43 15.01C10.34 14.97 10.23 14.94 10.13 14.94C10.05 14.94 9.97 14.96 9.9 14.98L8.54 15.43C8.47 15.45 8.39 15.46 8.31 15.45C8.23 15.44 8.16 15.42 8.09 15.38C8.02 15.34 7.96 15.28 7.92 15.22C7.87 15.15 7.84 15.08 7.82 15L7.67 14.29L3.65 20.21L5.97 20.05L6.61 22.35L11.13 15.7L10.69 15.2ZM13.3 15.2C13.4 15.09 13.52 15.01 13.67 14.97C13.81 14.93 13.95 14.94 14.09 14.98L15.45 15.43C15.52 15.45 15.6 15.46 15.68 15.45C15.76 15.44 15.83 15.42 15.9 15.38C15.97 15.34 16.02 15.28 16.07 15.22C16.12 15.15 16.15 15.08 16.17 15L16.47 13.57C16.5 13.42 16.57 13.29 16.68 13.18C16.78 13.08 16.91 13 17.05 12.97L17.11 12.96L22 20.33L18.02 20.05L16.91 24L11.93 16.48C12.01 16.48 12.08 16.46 12.15 16.43C12.23 16.39 12.29 16.35 12.34 16.29L13.3 15.2Z" fill="#A78BFA" fill-opacity="1.000000" fill-rule="nonzero"/>
		<path id="Vector" d="M13.3 15.2C13.4 15.09 13.52 15.01 13.67 14.97C13.81 14.93 13.95 14.94 14.09 14.98L15.45 15.43C15.52 15.45 15.6 15.46 15.68 15.45C15.76 15.44 15.83 15.42 15.9 15.38C15.97 15.34 16.02 15.28 16.07 15.22C16.12 15.15 16.15 15.08 16.17 15L16.32 14.29L20.34 20.21L18.02 20.05L17.37 22.35L12.86 15.7L13.3 15.2Z" fill="#A78BFA" fill-opacity="1.000000" fill-rule="nonzero"/>
		<path id="Vector" d="M13.97 15.84L15.27 16.26C15.45 16.33 15.65 16.35 15.85 16.32C16.04 16.3 16.23 16.24 16.4 16.14C16.57 16.04 16.72 15.9 16.83 15.74C16.95 15.57 17.03 15.39 17.07 15.19L17.36 13.81L17.64 13.75L17.11 12.96L17.05 12.97C16.91 13 16.78 13.08 16.68 13.18C16.57 13.29 16.5 13.42 16.47 13.57L16.17 15C16.15 15.08 16.12 15.15 16.07 15.22C16.03 15.28 15.97 15.34 15.9 15.38C15.83 15.42 15.76 15.44 15.68 15.45C15.6 15.46 15.52 15.45 15.45 15.43L14.09 14.98C13.95 14.94 13.81 14.93 13.67 14.97C13.53 15.01 13.4 15.09 13.3 15.2L12.34 16.29C12.3 16.34 12.25 16.38 12.19 16.41C12.13 16.44 12.06 16.46 11.99 16.46C11.93 16.46 11.86 16.44 11.8 16.41C11.74 16.38 11.69 16.34 11.65 16.29L10.69 15.2C10.62 15.12 10.53 15.06 10.43 15.01C10.34 14.97 10.23 14.94 10.13 14.94C10.05 14.94 9.97 14.96 9.9 14.98L8.54 15.43C8.47 15.45 8.39 15.46 8.31 15.45C8.23 15.44 8.16 15.42 8.09 15.38C8.02 15.34 7.96 15.28 7.92 15.22C7.87 15.15 7.84 15.08 7.82 15L7.52 13.57C7.49 13.42 7.42 13.29 7.31 13.18C7.21 13.07 7.08 13 6.94 12.97L6.88 12.96L6.35 13.75L6.64 13.81L6.93 15.19C6.98 15.39 7.06 15.57 7.17 15.74C7.29 15.9 7.44 16.04 7.61 16.14C7.78 16.24 7.97 16.3 8.16 16.33C8.36 16.35 8.55 16.33 8.74 16.26L10.04 15.83L10.96 16.88C11.12 17.05 11.32 17.19 11.54 17.26L11.99 16.58L12.45 17.27C12.68 17.19 12.88 17.06 13.05 16.88L13.97 15.84Z" fill="#7C3AED" fill-opacity="1.000000" fill-rule="nonzero"/>
		<path id="Vector" d="M10.69 15.2C10.62 15.12 10.53 15.06 10.43 15.01C10.34 14.97 10.23 14.94 10.13 14.94C10.05 14.94 9.97 14.96 9.9 14.98L8.54 15.43C8.47 15.45 8.39 15.46 8.31 15.45C8.23 15.44 8.16 15.42 8.09 15.38C8.02 15.34 7.96 15.28 7.92 15.22C7.87 15.15 7.84 15.08 7.82 15L7.67 14.29L3.65 20.21L5.97 20.05L6.61 22.35L11.13 15.7L10.69 15.2ZM16.32 14.29L16.17 15C16.15 15.08 16.12 15.15 16.07 15.22C16.03 15.28 15.97 15.34 15.9 15.38C15.83 15.42 15.76 15.44 15.68 15.45C15.6 15.46 15.52 15.45 15.45 15.43L14.09 14.98C13.96 14.94 13.81 14.93 13.67 14.97C13.53 15.01 13.4 15.09 13.3 15.2L12.86 15.7L17.38 22.35L18.02 20.05L20.34 20.21L16.32 14.29Z" fill="#8B5CF6" fill-opacity="1.000000" fill-rule="nonzero"/>
		<path id="Vector" d="M11.13 15.7L10.69 15.2C10.62 15.12 10.53 15.06 10.43 15.01C10.34 14.97 10.23 14.94 10.13 14.94C10.05 14.94 9.97 14.96 9.9 14.98L8.54 15.43C8.47 15.45 8.39 15.46 8.31 15.45C8.23 15.44 8.16 15.42 8.09 15.38C8.02 15.34 7.96 15.28 7.92 15.22C7.87 15.15 7.84 15.08 7.82 15L7.67 14.29L6.97 15.32C7.09 15.69 7.34 15.99 7.67 16.17C8 16.35 8.38 16.38 8.74 16.26L10.04 15.83L10.61 16.47L11.13 15.7L11.13 15.7ZM15.27 16.26C15.62 16.38 16 16.35 16.33 16.18C16.66 16 16.91 15.7 17.03 15.34L16.32 14.29L16.17 15C16.15 15.08 16.12 15.15 16.07 15.22C16.03 15.28 15.97 15.34 15.9 15.38C15.83 15.42 15.76 15.44 15.68 15.45C15.6 15.46 15.52 15.45 15.45 15.43L14.09 14.98C13.96 14.94 13.81 14.93 13.67 14.97C13.53 15.01 13.4 15.09 13.3 15.2L12.86 15.7L13.39 16.48L13.97 15.84L15.27 16.26Z" fill="#A78BFA" fill-opacity="1.000000" fill-rule="nonzero"/>
		<path id="Vector" d="M17.15 3.5L18.54 3.81C18.63 3.84 18.71 3.87 18.79 3.93C18.86 3.99 18.92 4.06 18.97 4.14C19.01 4.22 19.04 4.31 19.05 4.41C19.06 4.5 19.05 4.6 19.03 4.69L18.59 6.09C18.56 6.21 18.55 6.34 18.59 6.47C18.62 6.59 18.68 6.71 18.78 6.79L19.83 7.78C19.9 7.85 19.95 7.92 19.99 8.01C20.03 8.1 20.04 8.19 20.04 8.29C20.04 8.38 20.03 8.47 19.99 8.56C19.95 8.65 19.9 8.72 19.83 8.79L18.78 9.78C18.68 9.87 18.62 9.98 18.59 10.1C18.55 10.23 18.56 10.36 18.59 10.49L19.03 11.89C19.05 11.98 19.06 12.07 19.05 12.17C19.04 12.26 19.01 12.35 18.97 12.43C18.92 12.51 18.86 12.59 18.79 12.64C18.71 12.7 18.63 12.74 18.54 12.76L17.15 13.07C17.02 13.1 16.91 13.16 16.82 13.25C16.73 13.35 16.67 13.46 16.64 13.59L16.34 15.02C16.32 15.12 16.28 15.2 16.23 15.28C16.17 15.36 16.1 15.42 16.02 15.47C15.95 15.52 15.86 15.54 15.77 15.55C15.67 15.57 15.58 15.56 15.49 15.53L14.14 15.08C14.02 15.04 13.89 15.04 13.77 15.07C13.65 15.11 13.54 15.17 13.45 15.27L12.49 16.36C12.43 16.43 12.35 16.48 12.27 16.52C12.19 16.56 12.1 16.58 12 16.58C11.91 16.58 11.82 16.56 11.74 16.52C11.65 16.48 11.58 16.43 11.52 16.36L10.56 15.27C10.47 15.17 10.36 15.11 10.24 15.07C10.12 15.04 9.99 15.04 9.87 15.08L8.51 15.53C8.43 15.56 8.33 15.57 8.24 15.55C8.15 15.54 8.06 15.52 7.98 15.47C7.9 15.42 7.83 15.36 7.78 15.28C7.73 15.2 7.69 15.12 7.67 15.02L7.36 13.59C7.34 13.46 7.28 13.35 7.19 13.25C7.1 13.16 6.98 13.1 6.86 13.07L5.47 12.76C5.38 12.74 5.29 12.7 5.22 12.64C5.15 12.59 5.08 12.51 5.04 12.43C4.99 12.35 4.96 12.26 4.95 12.17C4.94 12.07 4.95 11.98 4.98 11.89L5.41 10.49C5.45 10.36 5.45 10.23 5.42 10.1C5.39 9.98 5.32 9.87 5.23 9.78L4.18 8.79C4.11 8.72 4.06 8.65 4.02 8.56C3.98 8.47 3.96 8.38 3.96 8.29C3.96 8.19 3.98 8.1 4.02 8.01C4.06 7.92 4.11 7.85 4.18 7.78L5.23 6.79C5.32 6.71 5.39 6.59 5.42 6.47C5.45 6.34 5.45 6.21 5.41 6.09L4.98 4.69C4.95 4.6 4.94 4.5 4.95 4.41C4.96 4.31 4.99 4.22 5.04 4.14C5.08 4.06 5.15 3.99 5.22 3.93C5.29 3.87 5.38 3.84 5.47 3.81L6.86 3.5C6.98 3.47 7.1 3.41 7.19 3.32C7.28 3.23 7.34 3.11 7.36 2.98L7.67 1.55C7.69 1.46 7.73 1.37 7.78 1.29C7.83 1.22 7.9 1.15 7.98 1.1C8.06 1.06 8.15 1.03 8.24 1.02C8.33 1.01 8.43 1.02 8.51 1.05L9.87 1.49C9.99 1.53 10.12 1.53 10.24 1.5C10.36 1.47 10.47 1.4 10.56 1.3L11.52 0.22C11.58 0.15 11.65 0.09 11.74 0.05C11.82 0.01 11.91 0 12 0C12.1 0 12.19 0.01 12.27 0.05C12.35 0.09 12.43 0.15 12.49 0.22L13.45 1.3C13.54 1.4 13.65 1.47 13.77 1.5C13.89 1.53 14.02 1.53 14.14 1.49L15.49 1.05C15.58 1.02 15.67 1.01 15.77 1.02C15.86 1.03 15.95 1.06 16.02 1.1C16.1 1.15 16.17 1.22 16.23 1.29C16.28 1.37 16.32 1.46 16.34 1.55L16.64 2.98C16.67 3.11 16.73 3.23 16.82 3.32C16.91 3.41 17.02 3.47 17.15 3.5Z" fill="#6D28D9" fill-opacity="1.000000" fill-rule="nonzero"/>
		<path id="Vector" d="M17.21 8.29C17.21 9.28 16.94 10.26 16.44 11.11C15.93 11.95 15.2 12.64 14.34 13.09C13.48 13.53 12.51 13.72 11.55 13.63C10.59 13.55 9.67 13.19 8.89 12.59C8.12 12 7.52 11.19 7.16 10.27C6.8 9.34 6.7 8.33 6.87 7.35C7.04 6.37 7.47 5.46 8.11 4.71C8.75 3.97 9.58 3.42 10.5 3.14C10.99 2.98 11.49 2.91 12 2.91C12.69 2.91 13.37 3.05 14 3.32C14.63 3.59 15.21 3.99 15.69 4.49C16.17 4.98 16.56 5.58 16.82 6.23C17.08 6.88 17.22 7.58 17.21 8.29Z" fill="#A78BFA" fill-opacity="1.000000" fill-rule="nonzero"/>
		<path id="Vector" d="M17.21 8.29C17.21 9.2 16.99 10.09 16.56 10.89C16.14 11.69 15.52 12.36 14.77 12.84C14.28 12.99 13.78 13.07 13.27 13.07C12.14 13.07 11.04 12.69 10.13 11.99C9.23 11.29 8.57 10.3 8.26 9.18C7.94 8.06 7.99 6.86 8.4 5.77C8.8 4.68 9.54 3.76 10.5 3.14C10.99 2.98 11.49 2.91 12 2.91C12.69 2.91 13.37 3.05 14 3.32C14.63 3.59 15.21 3.99 15.69 4.49C16.17 4.98 16.56 5.58 16.82 6.23C17.08 6.88 17.22 7.58 17.21 8.29Z" fill="#8B5CF6" fill-opacity="1.000000" fill-rule="nonzero"/>
		<path id="Vector" d="M12.38 11.6C12.28 11.6 12.19 11.56 12.12 11.49C12.05 11.42 12.01 11.32 12.01 11.22L12.01 6.42L11.04 7.1C11 7.13 10.95 7.15 10.9 7.16C10.86 7.17 10.8 7.17 10.76 7.16C10.71 7.15 10.66 7.14 10.62 7.11C10.58 7.08 10.54 7.04 10.51 7C10.48 6.96 10.46 6.91 10.45 6.86C10.44 6.81 10.44 6.76 10.45 6.71C10.46 6.66 10.48 6.61 10.51 6.57C10.54 6.52 10.57 6.49 10.62 6.46L12.17 5.36C12.23 5.32 12.29 5.3 12.36 5.3C12.43 5.29 12.5 5.31 12.56 5.34C12.62 5.37 12.67 5.42 12.7 5.48C12.74 5.54 12.76 5.61 12.76 5.68L12.76 11.22C12.76 11.32 12.72 11.42 12.65 11.49C12.58 11.56 12.48 11.6 12.38 11.6Z" fill="#F5F3FF" fill-opacity="1.000000" fill-rule="nonzero"/>
	</g>
</svg>
