<svg width="24.000000" height="24.000000" viewBox="0 0 24 24" fill="none" xmlns="http://www.w3.org/2000/svg" xmlns:xlink="http://www.w3.org/1999/xlink">
	<desc>
			Created with Pixso.
	</desc>
	<defs>
		<clipPath id="clip1106_867">
			<rect id="Icon / Delivery" width="24.000000" height="24.000000" fill="white" fill-opacity="0"/>
		</clipPath>
	</defs>
	<g clip-path="url(#clip1106_867)">
		<path id="Vector" d="M23.75 13.1L21.68 9.53C21.63 9.44 21.56 9.37 21.47 9.32C21.38 9.27 21.28 9.24 21.17 9.24L17.98 9.24L17.98 6.3C17.98 6.22 17.95 6.14 17.89 6.08C17.83 6.03 17.75 6 17.67 6L4.92 6C4.84 6 4.76 6.03 4.7 6.08C4.64 6.14 4.61 6.22 4.61 6.3L4.61 15.91C4.61 16.02 4.66 16.14 4.74 16.22C4.83 16.3 4.94 16.35 5.06 16.35L23.72 16.35C23.76 16.35 23.79 16.34 23.83 16.33C23.86 16.31 23.89 16.29 23.92 16.27C23.94 16.25 23.96 16.22 23.97 16.18C23.99 16.15 24 16.12 24 16.08L24 14.03C24 13.71 23.91 13.38 23.75 13.1Z" fill="#8B5CF6" fill-opacity="1.000000" fill-rule="nonzero"/>
		<path id="Vector" d="M24 14.03L24 15.4L20.02 15.4C19.77 15.4 19.53 15.31 19.36 15.14C19.19 14.97 19.09 14.75 19.09 14.51L19.09 9.24L21.17 9.24C21.28 9.24 21.38 9.27 21.47 9.32C21.56 9.37 21.63 9.44 21.68 9.53L23.75 13.1C23.91 13.38 24 13.71 24 14.03Z" fill="#A78BFA" fill-opacity="1.000000" fill-rule="nonzero"/>
		<path id="Vector" d="M22.68 16.35C22.68 16.69 22.57 17.01 22.37 17.29C22.16 17.58 21.87 17.79 21.52 17.91C21.18 18.02 20.81 18.02 20.46 17.92C20.11 17.81 19.81 17.61 19.6 17.32C19.38 17.04 19.27 16.7 19.27 16.35C19.27 15.91 19.45 15.49 19.77 15.18C20.09 14.88 20.52 14.7 20.97 14.7C21.43 14.7 21.86 14.88 22.18 15.18C22.5 15.49 22.68 15.91 22.68 16.35Z" fill="#A5B4FC" fill-opacity="1.000000" fill-rule="nonzero"/>
		<path id="Vector" d="M17.98 6.3L17.98 15.45L7.59 15.45C7.34 15.45 7.1 15.41 6.87 15.31C6.65 15.22 6.44 15.09 6.27 14.92C6.09 14.76 5.96 14.56 5.86 14.34C5.77 14.12 5.72 13.89 5.72 13.65L5.72 6L17.67 6C17.75 6 17.83 6.03 17.89 6.08C17.95 6.14 17.98 6.22 17.98 6.3Z" fill="#A78BFA" fill-opacity="1.000000" fill-rule="nonzero"/>
		<path id="Vector" d="M22.68 16.35C22.68 16.69 22.57 17.01 22.37 17.29C22.22 17.33 22.06 17.35 21.91 17.35C21.45 17.35 21.02 17.18 20.7 16.87C20.38 16.56 20.2 16.14 20.2 15.71C20.2 15.37 20.31 15.03 20.52 14.76C20.77 14.69 21.04 14.68 21.29 14.73C21.55 14.78 21.8 14.88 22.01 15.04C22.22 15.19 22.39 15.39 22.5 15.62C22.62 15.84 22.68 16.09 22.68 16.35Z" fill="#C4B5FD" fill-opacity="1.000000" fill-rule="nonzero"/>
		<path id="Vector" d="M11.67 16.35C11.67 16.66 11.58 16.96 11.42 17.22C11.25 17.48 11.01 17.69 10.72 17.82C10.44 17.96 10.12 18.02 9.8 17.99C9.49 17.96 9.19 17.84 8.93 17.66C8.68 17.47 8.49 17.22 8.37 16.94C8.26 16.65 8.23 16.34 8.29 16.04C8.35 15.74 8.5 15.46 8.71 15.23C8.93 15.01 9.2 14.84 9.51 14.76C9.66 14.72 9.81 14.7 9.97 14.7C10.19 14.7 10.41 14.74 10.62 14.82C10.83 14.91 11.02 15.03 11.17 15.18C11.33 15.34 11.46 15.52 11.54 15.72C11.63 15.92 11.67 16.13 11.67 16.35Z" fill="#A5B4FC" fill-opacity="1.000000" fill-rule="nonzero"/>
		<path id="Vector" d="M11.67 16.35C11.67 16.69 11.56 17.01 11.36 17.29C11.21 17.33 11.06 17.35 10.9 17.35C10.45 17.35 10.01 17.18 9.69 16.87C9.37 16.56 9.19 16.14 9.19 15.71C9.19 15.37 9.3 15.04 9.51 14.76C9.66 14.72 9.81 14.7 9.97 14.7C10.19 14.7 10.41 14.74 10.62 14.82C10.83 14.91 11.02 15.03 11.17 15.18C11.33 15.34 11.46 15.52 11.54 15.72C11.63 15.92 11.67 16.13 11.67 16.35Z" fill="#C4B5FD" fill-opacity="1.000000" fill-rule="nonzero"/>
		<path id="Vector" d="M6.11 13.89L1.28 13.89C1.18 13.89 1.08 13.85 1.01 13.78C0.94 13.71 0.9 13.62 0.9 13.52C0.9 13.42 0.94 13.33 1.01 13.26C1.08 13.19 1.18 13.15 1.28 13.15L6.11 13.15C6.22 13.15 6.31 13.19 6.38 13.26C6.46 13.33 6.5 13.42 6.5 13.52C6.5 13.62 6.46 13.71 6.38 13.78C6.31 13.85 6.22 13.89 6.11 13.89ZM9.97 12.22L3.22 12.22C3.12 12.22 3.02 12.18 2.95 12.11C2.88 12.04 2.84 11.95 2.84 11.85C2.84 11.75 2.88 11.66 2.95 11.59C3.02 11.52 3.12 11.48 3.22 11.48L9.97 11.48C10.07 11.48 10.17 11.52 10.24 11.59C10.31 11.66 10.35 11.75 10.35 11.85C10.35 11.95 10.31 12.04 10.24 12.11C10.17 12.18 10.07 12.22 9.97 12.22ZM3.01 10.28L0.38 10.28C0.27 10.28 0.18 10.24 0.11 10.17C0.04 10.1 0 10.01 0 9.91C0 9.81 0.04 9.72 0.11 9.65C0.18 9.58 0.27 9.54 0.38 9.54L3.01 9.54C3.11 9.54 3.21 9.58 3.28 9.65C3.35 9.72 3.39 9.81 3.39 9.91C3.39 10.01 3.35 10.1 3.28 10.17C3.21 10.24 3.11 10.28 3.01 10.28ZM7.23 8.25L2.58 8.25C2.48 8.25 2.39 8.21 2.32 8.14C2.24 8.07 2.2 7.98 2.2 7.88C2.2 7.78 2.24 7.69 2.32 7.62C2.39 7.55 2.48 7.51 2.58 7.51L7.23 7.51C7.34 7.51 7.43 7.55 7.5 7.62C7.58 7.69 7.62 7.78 7.62 7.88C7.62 7.98 7.58 8.07 7.5 8.14C7.43 8.21 7.34 8.25 7.23 8.25Z" fill="#A5B4FC" fill-opacity="1.000000" fill-rule="nonzero"/>
	</g>
</svg>
