<svg width="24.000000" height="24.000000" viewBox="0 0 24 24" fill="none" xmlns="http://www.w3.org/2000/svg" xmlns:xlink="http://www.w3.org/1999/xlink">
	<desc>
			Created with Pixso.
	</desc>
	<defs>
		<clipPath id="clip1112_1049">
			<rect id="Icon / clear info" width="24.000000" height="24.000000" fill="white" fill-opacity="0"/>
		</clipPath>
	</defs>
	<g clip-path="url(#clip1112_1049)">
		<path id="Vector" d="M15.47 19.42L15.47 21L8.52 21L8.52 19.42L10.18 19.42L10.47 16.77L10.54 16.14L10.54 16.12L13.45 16.12L13.45 16.14L13.52 16.77L13.81 19.42L15.47 19.42Z" fill="#8B5CF6" fill-opacity="1.000000" fill-rule="nonzero"/>
		<path id="Vector" d="M13.52 16.77L10.47 16.77L10.54 16.14L10.54 16.12L13.45 16.12L13.45 16.14L13.52 16.77Z" fill="#7C3AED" fill-opacity="1.000000" fill-rule="nonzero"/>
		<path id="Vector" d="M13.81 19.42L8.51 19.42L8.51 20.99L15.47 20.99L15.47 19.42L13.81 19.42Z" fill="#A78BFA" fill-opacity="1.000000" fill-rule="nonzero"/>
		<path id="Vector" d="M21.28 3L2.7 3C2.52 3 2.34 3.07 2.2 3.2C2.07 3.33 2 3.5 2 3.69L2 15.44C2 15.63 2.07 15.8 2.2 15.93C2.34 16.06 2.52 16.14 2.7 16.14L21.24 16.14C21.34 16.14 21.44 16.12 21.53 16.08C21.62 16.04 21.7 15.99 21.77 15.92C21.84 15.85 21.9 15.77 21.94 15.68C21.98 15.59 22 15.5 22 15.4L22 3.69C22 3.5 21.92 3.33 21.79 3.2C21.65 3.07 21.47 3 21.28 3Z" fill="#C4B5FD" fill-opacity="1.000000" fill-rule="nonzero"/>
		<path id="Vector" d="M3.32 4.2L20.67 4.2L20.67 13.76L3.32 13.76L3.32 4.2Z" fill="#4C1D95" fill-opacity="1.000000" fill-rule="nonzero"/>
		<path id="Vector" d="M20.67 4.2L20.67 12.89L7.21 12.89C6.53 12.89 5.88 12.62 5.39 12.15C4.91 11.68 4.64 11.05 4.64 10.38L4.64 4.2L20.67 4.2Z" fill="#6D28D9" fill-opacity="1.000000" fill-rule="nonzero"/>
		<path id="Vector" d="M18.05 10.92C18.06 10.91 18.06 10.9 18.07 10.88L18.07 10.88C18.19 10.68 18.29 10.47 18.36 10.24C18.56 9.62 18.56 8.96 18.35 8.34C18.15 7.72 17.75 7.17 17.21 6.79C16.67 6.4 16.03 6.18 15.36 6.17C14.69 6.15 14.03 6.34 13.48 6.7C13.1 6.95 12.77 7.28 12.54 7.67C12.32 8.02 12.17 8.41 12.1 8.82C12.04 9.23 12.06 9.64 12.16 10.04C12.26 10.44 12.44 10.82 12.69 11.15C12.94 11.49 13.25 11.77 13.62 11.98C14.13 12.27 14.71 12.43 15.31 12.44C15.65 12.44 15.98 12.39 16.3 12.27C16.53 12.19 16.74 12.1 16.95 11.98L16.96 11.99L17.88 12.89L20.06 12.89C19.13 11.98 18.05 10.93 18.05 10.92Z" fill="#4C1D95" fill-opacity="1.000000" fill-rule="nonzero"/>
		<path id="Vector" d="M21.62 14.93C21.59 15.06 21.52 15.18 21.42 15.27C21.27 15.41 21.08 15.49 20.87 15.49C20.67 15.49 20.47 15.41 20.33 15.27L18.78 13.76L20.67 13.76L20.67 13.49L21.42 14.21C21.51 14.3 21.58 14.42 21.62 14.54C21.65 14.67 21.65 14.8 21.62 14.93Z" fill="#DDD6FE" fill-opacity="1.000000" fill-rule="nonzero"/>
		<path id="Vector" d="M20.67 13.49L20.67 13.76L18.78 13.76L17.88 12.89L20.06 12.89C20.28 13.1 20.49 13.3 20.67 13.49Z" fill="#5B21B6" fill-opacity="1.000000" fill-rule="nonzero"/>
		<path id="Vector" d="M21.77 13.89L18.4 10.61C18.8 9.95 18.95 9.17 18.81 8.42C18.67 7.67 18.25 6.99 17.63 6.52C17.01 6.04 16.23 5.81 15.45 5.86C14.66 5.9 13.92 6.23 13.36 6.77C12.81 7.31 12.47 8.03 12.43 8.8C12.38 9.56 12.62 10.32 13.11 10.92C13.59 11.52 14.29 11.93 15.06 12.07C15.83 12.21 16.63 12.07 17.31 11.67L20.68 14.95C20.82 15.09 21.02 15.17 21.22 15.17C21.43 15.17 21.62 15.09 21.77 14.95C21.91 14.81 21.99 14.62 21.99 14.42C21.99 14.22 21.91 14.03 21.77 13.89Z" fill="#A78BFA" fill-opacity="1.000000" fill-rule="nonzero"/>
		<path id="Vector" d="M18.86 8.98C18.86 10.72 17.42 12.12 15.64 12.12C13.86 12.12 12.42 10.72 12.42 8.98C12.42 7.25 13.86 5.84 15.64 5.84C17.42 5.84 18.86 7.25 18.86 8.98Z" fill="#8B5CF6" fill-opacity="1.000000" fill-rule="evenodd"/>
		<path id="Vector" d="M21.77 13.89L18.39 10.6C18.26 10.82 18.1 11.02 17.92 11.2C17.83 11.29 17.73 11.37 17.64 11.44L20.85 14.57C21 14.72 21.2 14.79 21.4 14.79C21.6 14.79 21.8 14.72 21.94 14.57L21.99 14.53C22 14.42 21.99 14.3 21.96 14.19C21.92 14.07 21.85 13.97 21.77 13.89Z" fill="#C4B5FD" fill-opacity="1.000000" fill-rule="evenodd"/>
		<path id="Vector" d="M15.64 5.84C14.87 5.84 14.13 6.11 13.54 6.6C13.14 7.23 12.98 7.99 13.09 8.73C13.21 9.47 13.59 10.15 14.17 10.64C14.76 11.13 15.5 11.4 16.27 11.4C17.04 11.4 17.79 11.13 18.37 10.65C18.68 10.17 18.85 9.63 18.86 9.06C18.88 8.5 18.74 7.95 18.46 7.46C18.18 6.97 17.77 6.56 17.27 6.28C16.78 5.99 16.21 5.84 15.64 5.84Z" fill="#C4B5FD" fill-opacity="1.000000" fill-rule="nonzero"/>
	</g>
</svg>
