<svg width="24.000000" height="24.000000" viewBox="0 0 24 24" fill="none" xmlns="http://www.w3.org/2000/svg" xmlns:xlink="http://www.w3.org/1999/xlink">
	<desc>
			Created with Pixso.
	</desc>
	<defs>
		<clipPath id="clip1112_944">
			<rect id="Icon / Board" width="24.000000" height="24.000000" fill="white" fill-opacity="0"/>
		</clipPath>
	</defs>
	<g clip-path="url(#clip1112_944)">
		<path id="Vector" d="M11.95 3.31L11.95 3.38L6.92 3.38L6.92 3.31L7.25 2L11.61 2L11.95 3.31Z" fill="#EDE9FE" fill-opacity="1.000000" fill-rule="nonzero"/>
		<path id="Vector" d="M2 3.31L16.87 3.31L16.87 22L2 22L2 3.31Z" fill="#4C1D95" fill-opacity="1.000000" fill-rule="nonzero"/>
		<path id="Vector" d="M3.34 4.62L15.52 4.62L15.52 20.69L3.34 20.69L3.34 4.62Z" fill="#C4B5FD" fill-opacity="1.000000" fill-rule="nonzero"/>
		<path id="Vector" d="M15.52 4.62L15.52 19.71L7.02 19.71C6.74 19.71 6.47 19.65 6.21 19.55C5.96 19.45 5.73 19.3 5.53 19.11C5.34 18.92 5.18 18.7 5.08 18.45C4.97 18.2 4.92 17.94 4.92 17.67L4.92 4.62L15.52 4.62Z" fill="#A78BFA" fill-opacity="1.000000" fill-rule="nonzero"/>
		<path id="Vector" d="M5 6.2C4.9 6.2 4.81 6.23 4.74 6.3C4.67 6.37 4.63 6.46 4.63 6.56L4.63 8.4C4.63 8.49 4.67 8.59 4.74 8.65C4.81 8.72 4.9 8.76 5 8.76L6.9 8.76C7 8.76 7.1 8.72 7.17 8.65C7.24 8.59 7.27 8.49 7.27 8.4L7.27 6.59C7.27 6.54 7.26 6.48 7.24 6.44C7.22 6.39 7.19 6.35 7.16 6.31C7.12 6.27 7.07 6.24 7.02 6.23C6.98 6.21 6.92 6.2 6.87 6.2L5 6.2ZM5 11.32C4.9 11.32 4.81 11.36 4.74 11.43C4.67 11.49 4.63 11.58 4.63 11.68L4.63 13.52C4.63 13.62 4.67 13.71 4.74 13.78C4.81 13.85 4.9 13.88 5 13.88L6.9 13.88C7 13.88 7.1 13.85 7.17 13.78C7.24 13.71 7.27 13.62 7.27 13.52L7.27 11.71C7.27 11.61 7.23 11.51 7.16 11.43C7.08 11.36 6.98 11.32 6.87 11.32L5 11.32ZM5 16.37C4.95 16.37 4.9 16.38 4.86 16.4C4.81 16.42 4.77 16.44 4.74 16.48C4.7 16.51 4.68 16.55 4.66 16.59C4.64 16.64 4.63 16.68 4.63 16.73L4.63 18.58C4.63 18.67 4.67 18.76 4.74 18.83C4.81 18.9 4.9 18.94 5 18.94L6.9 18.94C7 18.94 7.1 18.9 7.17 18.83C7.24 18.76 7.27 18.67 7.27 18.58L7.27 16.76C7.27 16.71 7.26 16.66 7.24 16.61C7.22 16.56 7.19 16.52 7.16 16.48C7.12 16.45 7.07 16.42 7.02 16.4C6.98 16.38 6.92 16.37 6.87 16.37L5 16.37Z" fill="#6D28D9" fill-opacity="1.000000" fill-rule="nonzero"/>
		<path id="Vector" d="M13.97 7.79L11.34 7.79C11.25 7.79 11.17 7.75 11.11 7.69C11.04 7.63 11.01 7.55 11.01 7.47C11.01 7.38 11.04 7.3 11.11 7.24C11.17 7.18 11.25 7.14 11.34 7.14L13.97 7.14C14.05 7.14 14.14 7.18 14.2 7.24C14.26 7.3 14.3 7.38 14.3 7.47C14.3 7.55 14.26 7.63 14.2 7.69C14.14 7.75 14.05 7.79 13.97 7.79ZM10 7.79L8.65 7.79C8.56 7.79 8.48 7.75 8.41 7.69C8.35 7.63 8.32 7.55 8.32 7.47C8.32 7.38 8.35 7.3 8.41 7.24C8.48 7.18 8.56 7.14 8.65 7.14L10 7.14C10.09 7.14 10.17 7.18 10.23 7.24C10.3 7.3 10.33 7.38 10.33 7.47C10.33 7.55 10.3 7.63 10.23 7.69C10.17 7.75 10.09 7.79 10 7.79ZM13.97 12.78L12.67 12.78C12.58 12.78 12.49 12.75 12.43 12.69C12.37 12.63 12.33 12.55 12.33 12.46C12.33 12.37 12.37 12.29 12.43 12.23C12.49 12.17 12.58 12.14 12.67 12.14L13.97 12.14C14.05 12.14 14.14 12.17 14.2 12.23C14.26 12.29 14.3 12.37 14.3 12.46C14.3 12.55 14.26 12.63 14.2 12.69C14.14 12.75 14.05 12.78 13.97 12.78ZM11.31 12.78L8.65 12.78C8.56 12.78 8.47 12.75 8.41 12.69C8.35 12.63 8.31 12.55 8.31 12.46C8.31 12.37 8.35 12.29 8.41 12.23C8.47 12.17 8.56 12.14 8.65 12.14L11.31 12.14C11.4 12.14 11.48 12.17 11.55 12.23C11.61 12.29 11.64 12.37 11.64 12.46C11.64 12.55 11.61 12.63 11.55 12.69C11.48 12.75 11.4 12.78 11.31 12.78ZM6.18 8.04L6.17 8.04C6.12 8.04 6.08 8.03 6.04 8.01C6 7.99 5.96 7.97 5.93 7.94L5.52 7.5C5.49 7.47 5.47 7.43 5.45 7.39C5.44 7.35 5.43 7.31 5.44 7.27C5.44 7.22 5.45 7.18 5.47 7.14C5.49 7.11 5.51 7.07 5.54 7.04C5.58 7.01 5.61 6.99 5.65 6.98C5.7 6.96 5.74 6.96 5.78 6.96C5.83 6.96 5.87 6.97 5.91 6.99C5.95 7.01 5.98 7.03 6.01 7.06L6.2 7.26L7.94 5.68C8.01 5.62 8.09 5.59 8.18 5.59C8.27 5.59 8.35 5.63 8.41 5.69C8.47 5.75 8.5 5.84 8.5 5.92C8.5 6.01 8.46 6.09 8.4 6.15L6.41 7.95C6.35 8.01 6.26 8.04 6.18 8.04ZM6.18 13.17L6.17 13.17C6.12 13.16 6.08 13.15 6.04 13.14C6 13.12 5.96 13.09 5.93 13.06L5.52 12.62C5.49 12.59 5.47 12.55 5.45 12.51C5.44 12.48 5.43 12.43 5.44 12.39C5.44 12.35 5.45 12.31 5.47 12.27C5.49 12.23 5.51 12.2 5.54 12.17C5.58 12.14 5.61 12.12 5.65 12.1C5.7 12.09 5.74 12.08 5.78 12.08C5.83 12.09 5.87 12.1 5.91 12.11C5.95 12.13 5.98 12.16 6.01 12.19L6.2 12.38L7.94 10.8C8.01 10.74 8.09 10.71 8.18 10.72C8.27 10.72 8.35 10.75 8.41 10.82C8.47 10.88 8.5 10.96 8.5 11.05C8.5 11.13 8.46 11.21 8.4 11.27L6.41 13.08C6.35 13.14 6.26 13.17 6.18 13.17ZM6.18 18.22L6.17 18.22C6.12 18.21 6.08 18.2 6.04 18.19C6 18.17 5.96 18.14 5.93 18.11L5.52 17.67C5.49 17.64 5.47 17.6 5.45 17.56C5.43 17.52 5.42 17.48 5.43 17.44C5.43 17.39 5.44 17.35 5.46 17.31C5.47 17.27 5.5 17.24 5.53 17.21C5.57 17.18 5.61 17.16 5.65 17.14C5.69 17.13 5.73 17.12 5.78 17.13C5.82 17.13 5.87 17.14 5.91 17.16C5.95 17.18 5.98 17.2 6.01 17.24L6.2 17.43L7.94 15.85C8 15.8 8.09 15.77 8.18 15.77C8.26 15.78 8.34 15.81 8.4 15.87C8.46 15.93 8.49 16.02 8.49 16.1C8.49 16.18 8.46 16.26 8.39 16.32L6.41 18.13C6.35 18.18 6.26 18.22 6.18 18.22ZM14.05 17.96L11.43 17.96C11.34 17.96 11.26 17.93 11.19 17.87C11.13 17.81 11.1 17.73 11.1 17.64C11.1 17.56 11.13 17.47 11.19 17.41C11.26 17.35 11.34 17.32 11.43 17.32L14.05 17.32C14.14 17.32 14.23 17.35 14.29 17.41C14.35 17.47 14.39 17.56 14.39 17.64C14.39 17.73 14.35 17.81 14.29 17.87C14.23 17.93 14.14 17.96 14.05 17.96ZM10.08 17.96L8.74 17.96C8.65 17.96 8.56 17.93 8.5 17.87C8.44 17.81 8.4 17.73 8.4 17.64C8.4 17.56 8.44 17.47 8.5 17.41C8.56 17.35 8.65 17.32 8.74 17.32L10.08 17.32C10.17 17.32 10.26 17.35 10.32 17.41C10.38 17.47 10.42 17.56 10.42 17.64C10.42 17.73 10.38 17.81 10.32 17.87C10.26 17.93 10.17 17.96 10.08 17.96Z" fill="#EDE9FE" fill-opacity="1.000000" fill-rule="nonzero"/>
		<path id="Vector" d="M22 10.86C22 10.95 21.96 11.03 21.9 11.09C21.84 11.15 21.75 11.19 21.66 11.19C21.57 11.19 21.49 11.15 21.43 11.09C21.36 11.03 21.33 10.95 21.33 10.86L21.33 7.91C21.31 7.84 21.22 7.67 20.83 7.67L20.49 7.67L20.49 7.08C20.49 7.06 20.49 7.04 20.49 7.02L20.83 7.02C21.09 6.99 21.36 7.06 21.58 7.21C21.79 7.36 21.94 7.59 21.99 7.84L22 10.86ZM20.52 18.68L19.51 22L18.5 18.68L20.52 18.68Z" fill="#6D28D9" fill-opacity="1.000000" fill-rule="nonzero"/>
		<path id="Vector" d="M18.5 10.86L20.52 10.86L20.52 18.68L18.5 18.68L18.5 10.86Z" fill="#C4B5FD" fill-opacity="1.000000" fill-rule="nonzero"/>
		<path id="Vector" d="M20.52 7.08L20.52 10.86L18.5 10.86L18.5 7.08C18.5 6.82 18.6 6.57 18.79 6.39C18.98 6.2 19.24 6.1 19.51 6.1C19.78 6.1 20.03 6.2 20.22 6.39C20.41 6.57 20.52 6.82 20.52 7.08Z" fill="#6D28D9" fill-opacity="1.000000" fill-rule="nonzero"/>
		<path id="Vector" d="M20.52 18.68L19.51 22L19.51 18.68L20.52 18.68Z" fill="#7C3AED" fill-opacity="1.000000" fill-rule="nonzero"/>
		<path id="Vector" d="M19.51 10.86L20.52 10.86L20.52 18.68L19.51 18.68L19.51 10.86Z" fill="#A78BFA" fill-opacity="1.000000" fill-rule="nonzero"/>
		<path id="Vector" d="M20.52 7.08L20.52 10.86L19.51 10.86L19.51 6.1C19.77 6.1 20.01 6.2 20.2 6.37C20.39 6.54 20.5 6.77 20.51 7.02C20.52 7.04 20.52 7.06 20.52 7.08Z" fill="#7C3AED" fill-opacity="1.000000" fill-rule="nonzero"/>
	</g>
</svg>
