<svg width="24.000000" height="24.000000" viewBox="0 0 24 24" fill="none" xmlns="http://www.w3.org/2000/svg" xmlns:xlink="http://www.w3.org/1999/xlink">
	<desc>
			Created with Pixso.
	</desc>
	<defs>
		<clipPath id="clip1112_1162">
			<rect id="Icon / garantee" width="24.000000" height="24.000000" fill="white" fill-opacity="0"/>
		</clipPath>
	</defs>
	<g clip-path="url(#clip1112_1162)">
		<path id="Vector" d="M6.66 20.44C3.42 19.32 2.7 16.7 2.61 13.55C2.59 12.81 2.61 12.08 2.63 11.34C4.06 11.09 5.43 10.64 6.69 9.89C7.44 10.34 8.21 10.67 9.05 10.93C9.1 10.95 9.11 11.02 9.24 11.02C9.3 11.02 9.28 11.01 9.32 11.02C9.82 11.16 10.23 11.25 10.74 11.34C10.79 13.1 10.83 15.09 10.31 16.77C9.72 18.66 8.54 19.8 6.71 20.44L6.66 20.44ZM9.31 13.37C9.27 13.33 9.21 13.31 9.15 13.31C9.09 13.31 9.04 13.33 8.99 13.37L6.14 16.28L4.8 14.91C4.78 14.89 4.75 14.87 4.73 14.86C4.7 14.85 4.67 14.84 4.64 14.84C4.61 14.84 4.58 14.85 4.56 14.86C4.53 14.87 4.5 14.89 4.48 14.91C4.46 14.93 4.45 14.96 4.44 14.98C4.42 15.01 4.42 15.04 4.42 15.07C4.42 15.1 4.42 15.13 4.44 15.16C4.45 15.19 4.46 15.21 4.48 15.23L5.99 16.77C6.01 16.79 6.03 16.8 6.06 16.82C6.09 16.83 6.11 16.83 6.14 16.83C6.17 16.83 6.2 16.83 6.23 16.82C6.26 16.8 6.28 16.79 6.3 16.77L9.31 13.7C9.33 13.67 9.34 13.65 9.36 13.62C9.37 13.59 9.37 13.56 9.37 13.53C9.37 13.51 9.37 13.48 9.36 13.45C9.34 13.42 9.33 13.4 9.31 13.37ZM10.8 8.37L10.8 6.15C10.8 6.11 10.82 6.08 10.85 6.05C10.87 6.02 10.91 6.01 10.95 6.01L16.22 6.01L16.22 8.37L10.8 8.37ZM16.66 3.68C16.66 3.64 16.68 3.6 16.7 3.57C16.73 3.55 16.77 3.53 16.8 3.53L19.31 3.53C19.35 3.53 19.38 3.55 19.41 3.57C19.44 3.6 19.45 3.64 19.45 3.68L19.45 8.37L16.66 8.37L16.66 3.68ZM6 7.16C6 7.28 5.9 7.38 5.81 7.43C5.69 7.51 5.54 7.54 5.4 7.54L3.12 7.54C2.98 7.54 2.83 7.51 2.71 7.43C2.62 7.38 2.52 7.28 2.52 7.16L2.52 6.85C2.52 6.73 2.62 6.64 2.71 6.58C2.83 6.51 2.98 6.47 3.12 6.47L5.18 6.48C5.22 6.48 5.23 6.49 5.27 6.49L5.82 6.49C5.88 6.51 5.98 6.56 6 6.61L6 7.16Z" fill="#C4B5FD" fill-opacity="1.000000" fill-rule="evenodd"/>
		<path id="Vector" d="M9.36 13.32C9.39 13.34 9.42 13.38 9.43 13.42C9.45 13.45 9.45 13.49 9.45 13.53C9.45 13.58 9.45 13.62 9.43 13.65C9.42 13.69 9.39 13.73 9.36 13.75L6.36 16.83C6.33 16.85 6.3 16.88 6.26 16.89C6.22 16.91 6.18 16.92 6.14 16.92C6.1 16.92 6.06 16.91 6.03 16.89C5.99 16.88 5.96 16.85 5.93 16.83L4.43 15.29C4.4 15.26 4.38 15.23 4.36 15.19C4.35 15.15 4.34 15.11 4.34 15.07C4.34 15.03 4.35 14.99 4.36 14.95C4.38 14.91 4.4 14.88 4.43 14.85C4.54 14.73 4.74 14.73 4.85 14.85L6.14 16.17L8.94 13.32C9.05 13.2 9.25 13.2 9.36 13.32ZM17.19 13.14L17.19 10.66C17.19 10.49 17.32 10.35 17.49 10.35C17.66 10.35 17.79 10.49 17.79 10.66L17.79 13.14C17.79 13.31 17.66 13.45 17.49 13.45C17.32 13.45 17.19 13.31 17.19 13.14ZM14.76 13.14L14.76 10.66C14.76 10.58 14.8 10.5 14.85 10.44C14.91 10.38 14.99 10.35 15.07 10.35C15.15 10.35 15.22 10.38 15.28 10.44C15.34 10.5 15.37 10.58 15.37 10.66L15.37 13.14C15.37 13.22 15.34 13.3 15.28 13.36C15.22 13.41 15.15 13.45 15.07 13.45C15.03 13.45 14.99 13.44 14.95 13.42C14.91 13.41 14.88 13.38 14.85 13.36C14.82 13.33 14.8 13.29 14.79 13.26C14.77 13.22 14.76 13.18 14.76 13.14ZM12.34 13.14L12.34 10.66C12.34 10.62 12.35 10.58 12.36 10.54C12.38 10.5 12.4 10.47 12.43 10.44C12.46 10.41 12.49 10.39 12.53 10.37C12.56 10.36 12.6 10.35 12.64 10.35C12.72 10.35 12.8 10.38 12.86 10.44C12.91 10.5 12.95 10.58 12.95 10.66L12.95 13.14C12.95 13.22 12.91 13.3 12.86 13.36C12.8 13.41 12.72 13.45 12.64 13.45C12.56 13.45 12.48 13.41 12.43 13.36C12.37 13.3 12.34 13.22 12.34 13.14ZM18.53 18.2C18.53 18.68 18.16 19.06 17.69 19.06C17.23 19.06 16.85 18.68 16.85 18.2C16.85 17.73 17.23 17.35 17.69 17.35C18.16 17.35 18.53 17.73 18.53 18.2ZM13.19 18.2C13.19 18.68 12.81 19.06 12.35 19.06C11.89 19.06 11.51 18.68 11.51 18.2C11.51 17.73 11.89 17.35 12.35 17.35C12.81 17.35 13.19 17.73 13.19 18.2ZM6.69 20.36C8.54 19.72 9.67 18.57 10.23 16.74C10.74 15.11 10.71 13.17 10.66 11.41C10.29 11.35 9.91 11.26 9.54 11.16C9.46 11.14 9.38 11.12 9.3 11.1C9.28 11.1 9.26 11.11 9.24 11.11C9.16 11.11 9.08 11.07 9.02 11.01C8.17 10.74 7.37 10.39 6.69 9.99C5.53 10.67 4.1 11.17 2.71 11.41C2.66 13.17 2.64 15.11 3.14 16.74C3.7 18.57 4.83 19.72 6.69 20.36ZM21.09 8.9L8.88 8.9L9.45 10.5C9.98 10.65 10.47 10.76 11 10.84C11.15 10.86 11.26 10.99 11.26 11.14C11.29 12.34 11.33 13.64 11.2 14.89L17.85 14.89C18.47 14.89 18.99 14.55 19.25 13.98L21.36 9.33C21.38 9.29 21.39 9.24 21.39 9.19C21.38 9.14 21.37 9.09 21.34 9.04C21.32 9 21.28 8.96 21.23 8.94C21.19 8.92 21.14 8.9 21.09 8.9ZM10.88 6.15C10.88 6.12 10.91 6.09 10.95 6.09L16.14 6.09L16.14 8.28L10.88 8.28L10.88 6.15ZM16.8 3.61L19.31 3.61C19.34 3.61 19.37 3.64 19.37 3.68L19.37 8.28L16.74 8.28L16.74 3.68C16.74 3.64 16.77 3.61 16.8 3.61ZM5.92 6.63L5.92 7.16C5.92 7.3 5.69 7.46 5.4 7.46L3.12 7.46C2.83 7.46 2.6 7.3 2.6 7.16L2.6 6.85C2.6 6.71 2.83 6.56 3.12 6.56L5.17 6.56C5.19 6.56 5.21 6.58 5.28 6.58L5.8 6.57C5.87 6.59 5.91 6.62 5.92 6.63ZM17.85 15.51C18.71 15.51 19.44 15.04 19.8 14.24L21.91 9.59C22.19 8.98 21.75 8.28 21.09 8.28L19.98 8.28L19.98 3.68C19.98 3.3 19.68 3 19.31 3L16.8 3C16.44 3 16.14 3.3 16.14 3.68L16.14 5.47L10.95 5.47C10.58 5.47 10.28 5.78 10.28 6.15L10.28 8.28L8.65 8.28L8.16 6.92C7.94 6.32 7.4 5.94 6.78 5.94C6.77 5.94 6.76 5.94 6.76 5.94L5.86 5.95C5.81 5.94 5.76 5.94 5.7 5.94L3.12 5.94C2.49 5.94 2 6.34 2 6.85L2 7.16C2 7.68 2.49 8.08 3.12 8.08L5.4 8.08C6.03 8.08 6.52 7.68 6.52 7.16L6.52 6.56L6.78 6.56C7.15 6.56 7.46 6.78 7.59 7.14L8.72 10.26C8.03 10.01 7.4 9.71 6.84 9.36C6.8 9.33 6.74 9.32 6.69 9.32C6.63 9.32 6.58 9.33 6.53 9.36C5.34 10.1 3.83 10.62 2.37 10.84C2.3 10.85 2.23 10.89 2.19 10.94C2.14 11 2.11 11.07 2.11 11.14C2.06 13.01 2 15.12 2.56 16.93C3.19 18.96 4.51 20.29 6.59 20.98C6.65 21 6.72 21 6.78 20.98C8.72 20.34 10 19.14 10.67 17.33C10.81 17.35 11.04 17.35 11.18 17.35C10.49 18.32 11.18 19.68 12.35 19.68C13.53 19.68 14.21 18.31 13.53 17.35L16.52 17.35C15.84 18.31 16.52 19.68 17.69 19.68C18.87 19.68 19.55 18.32 18.87 17.35L20.03 17.35C20.19 17.35 20.33 17.21 20.33 17.04C20.33 16.87 20.19 16.73 20.03 16.73L10.87 16.73C10.98 16.33 11.06 15.93 11.12 15.51L17.85 15.51Z" fill="#8B5CF6" fill-opacity="1.000000" fill-rule="evenodd"/>
	</g>
</svg>
